<svg width="25" height="20" viewBox="0 0 25 20" fill="none" xmlns="http://www.w3.org/2000/svg">
<path d="M24.995 12.8683C24.9949 12.9697 24.9747 13.07 24.9354 13.1634C24.8961 13.2568 24.8386 13.3414 24.7662 13.4123C24.6187 13.557 24.4202 13.6379 24.2137 13.6373H17.9688C17.1474 13.6907 16.3377 13.4196 15.7137 12.8823C15.6597 12.9873 15.6028 13.0983 15.5448 13.2123C15.1252 14.0363 14.6076 14.3803 14.0141 14.2433C13.6404 14.1563 12.7062 13.9433 12.5333 9.72131C12.3897 9.88392 12.2086 10.0091 12.0058 10.0859C11.803 10.1627 11.5845 10.189 11.3693 10.1623C10.6759 10.0723 10.1753 9.47631 9.74864 8.17131C9.4324 11.1167 8.76969 14.0145 7.77428 16.8043C6.92299 19.1133 6.53131 19.9963 5.8259 19.9963C5.74504 19.9962 5.6645 19.9861 5.5861 19.9663C4.63788 19.7443 4.72881 18.9903 5.32831 14.0843C5.84362 10.4111 6.15484 6.71206 6.26054 3.00431C6.26054 2.91131 6.26054 2.82231 6.26054 2.73831C5.02452 6.11774 3.97383 9.5622 3.11315 13.0563C3.06924 13.2235 2.97098 13.3714 2.83386 13.4766C2.69673 13.5818 2.52854 13.6383 2.35577 13.6373H0.796067C0.692899 13.641 0.590039 13.6239 0.493629 13.587C0.397219 13.55 0.309236 13.494 0.234933 13.4223C0.160631 13.3506 0.101533 13.2646 0.061168 13.1695C0.0208035 13.0744 0 12.9721 0 12.8688C0 12.7655 0.0208035 12.6632 0.061168 12.5681C0.101533 12.473 0.160631 12.3871 0.234933 12.3153C0.309236 12.2436 0.397219 12.1876 0.493629 12.1507C0.590039 12.1137 0.692899 12.0966 0.796067 12.1003H1.74928C4.93264 -0.209686 6.0647 -0.066686 6.72415 0.014314C7.73931 0.137314 7.82324 1.44331 7.82324 3.00831C7.71837 6.77728 7.40348 10.5375 6.88002 14.2713C6.85904 14.4383 6.83906 14.6073 6.81807 14.7713C7.68169 11.8082 8.22108 8.76001 8.42674 5.68031C8.56862 4.04531 8.61558 3.49431 9.38694 3.44231C10.1863 3.37431 10.3072 3.87031 10.9267 6.55431C11.0507 7.22208 11.2644 7.86996 11.5621 8.48031C11.734 8.22767 11.8905 7.96486 12.0308 7.69331C12.3415 7.11631 12.6562 6.52531 13.3507 6.69331C14.0681 6.86931 14.0681 7.67231 14.0681 8.25931C14.0458 9.54834 14.1442 10.8366 14.3618 12.1073C14.9403 10.9803 15.1212 10.7303 15.6607 10.7303C15.8511 10.7412 16.0343 10.8073 16.1877 10.9206C16.3412 11.0339 16.4584 11.1895 16.525 11.3683C16.6899 11.6923 16.8937 12.0953 17.9738 12.0953H24.2186C24.4252 12.0948 24.6237 12.1756 24.7712 12.3203C24.8436 12.3912 24.9011 12.4758 24.9404 12.5692C24.9796 12.6627 24.9999 12.763 25 12.8643L24.995 12.8683Z" fill="#AAAAAA"/>
<path d="M16.72 9.99929C16.1359 9.50079 15.6417 8.90544 15.2592 8.23929C15.0822 7.95329 14.9874 7.62402 14.9851 7.28762C14.9828 6.95121 15.0732 6.62067 15.2463 6.33229L12.9482 2.81229C12.6857 2.41202 12.5928 1.92385 12.6899 1.45507C12.7869 0.986279 13.066 0.57524 13.4657 0.312289C13.7769 0.109815 14.1397 0.00116461 14.5109 -0.000711128C14.7925 -0.00583334 15.0706 0.0632586 15.3172 0.199635C15.5637 0.336012 15.7702 0.534878 15.9157 0.776289L15.9966 0.899289L16.9858 2.41629L17.0318 2.38529C17.3252 2.19307 17.6683 2.09088 18.019 2.09129C18.223 2.09078 18.4256 2.12459 18.6185 2.19129C18.7172 2.09216 18.826 2.00367 18.9432 1.92729C19.18 1.77195 19.4502 1.67478 19.7316 1.64367C20.013 1.61257 20.2979 1.64841 20.5628 1.74829C20.6541 1.65713 20.7545 1.57569 20.8626 1.50529C21.2631 1.24329 21.7511 1.1511 22.2195 1.24897C22.6879 1.34685 23.0982 1.62678 23.3605 2.02729L24.1669 3.25829C24.755 4.09743 25.042 5.1111 24.9812 6.13429C24.8764 6.86121 24.6036 7.55361 24.1843 8.15637C23.765 8.75914 23.211 9.25562 22.5662 9.60629C21.5558 10.3524 20.3498 10.7872 19.0961 10.8573C18.228 10.8594 17.3868 10.5556 16.72 9.99929ZM16.4133 7.52929C17.2616 8.91329 18.0639 9.49929 19.0961 9.49929C20.0845 9.42025 21.0304 9.06318 21.8248 8.46929C22.2942 8.22514 22.7013 7.87636 23.0146 7.44985C23.328 7.02333 23.5393 6.53048 23.6323 6.00929C23.6666 5.29071 23.4555 4.58184 23.0338 3.99929L22.2275 2.76929C22.1951 2.71959 22.1533 2.67677 22.1043 2.64329C22.0554 2.6098 22.0004 2.58629 21.9424 2.57413C21.8844 2.56196 21.8245 2.56136 21.7663 2.57237C21.7081 2.58338 21.6526 2.60578 21.603 2.63829C21.5061 2.70384 21.4329 2.79886 21.3942 2.90929C21.3797 2.94384 21.3728 2.98111 21.374 3.01855C21.3752 3.05599 21.3845 3.09274 21.4011 3.12629L21.4241 3.16029C21.4584 3.21242 21.4822 3.27081 21.4939 3.33212C21.5057 3.39343 21.5053 3.45645 21.4927 3.5176C21.4801 3.57875 21.4556 3.63682 21.4207 3.6885C21.3857 3.74018 21.3408 3.78445 21.2887 3.81879C21.2367 3.85313 21.1783 3.87687 21.1171 3.88864C21.0558 3.90042 20.9928 3.9 20.9317 3.88742C20.8706 3.87484 20.8126 3.85033 20.761 3.81531C20.7093 3.78028 20.6651 3.73542 20.6308 3.68329L20.3091 3.19329C20.2682 3.13017 20.2123 3.07825 20.1464 3.04228C20.0804 3.0063 20.0065 2.9874 19.9314 2.98729C19.8439 2.98718 19.7584 3.01292 19.6856 3.06129C19.5097 3.17529 19.3858 3.41829 19.4967 3.58329L19.5137 3.60829C19.5508 3.66076 19.577 3.72017 19.5907 3.78299C19.6044 3.8458 19.6053 3.91073 19.5934 3.97391C19.5815 4.03709 19.557 4.09721 19.5214 4.15071C19.4857 4.20421 19.4397 4.24999 19.386 4.28531C19.3324 4.32063 19.2721 4.34477 19.2089 4.3563C19.1457 4.36783 19.0809 4.36651 19.0182 4.35242C18.9555 4.33833 18.8963 4.31175 18.8441 4.27428C18.7919 4.2368 18.7478 4.18919 18.7144 4.13429L18.3966 3.64929C18.3324 3.54837 18.2307 3.47714 18.114 3.45126C17.9972 3.42538 17.875 3.44697 17.7742 3.51129C17.6733 3.5756 17.6022 3.67737 17.5763 3.79421C17.5504 3.91104 17.572 4.03337 17.6363 4.13429L17.6563 4.16429C17.7165 4.27023 17.7343 4.39517 17.7059 4.51373C17.6775 4.63228 17.6051 4.73558 17.5033 4.80265C17.4016 4.86972 17.2782 4.89554 17.1581 4.87485C17.0381 4.85417 16.9304 4.78854 16.8569 4.69129L15.9677 3.32729L14.7806 1.51429L14.7726 1.50529L14.7537 1.47129C14.7274 1.43185 14.691 1.40025 14.6482 1.37983C14.6055 1.35941 14.558 1.35093 14.5109 1.35529C14.4043 1.3575 14.3005 1.38935 14.2111 1.44729C14.1615 1.47968 14.1187 1.52155 14.0852 1.57051C14.0517 1.61947 14.0283 1.67456 14.0161 1.73261C14.0039 1.79067 14.0034 1.85055 14.0144 1.90884C14.0254 1.96713 14.0477 2.02267 14.0802 2.07229L17.3375 7.06229C17.3793 7.12267 17.4068 7.19179 17.4179 7.26439C17.4289 7.337 17.4233 7.41118 17.4015 7.48129C17.3689 7.57727 17.3053 7.65963 17.2206 7.71529C17.1466 7.76263 17.0607 7.78794 16.9728 7.78829C16.8925 7.78733 16.8137 7.766 16.7438 7.72631C16.6739 7.68661 16.6152 7.62984 16.5732 7.56129L16.3453 7.20829C16.33 7.31994 16.354 7.43347 16.4133 7.52929Z" fill="#AAAAAA"/>
</svg>
