<?xml version="1.0" encoding="utf-8"?>
<!-- Generator: Adobe Illustrator 27.7.0, SVG Export Plug-In . SVG Version: 6.00 Build 0)  -->
<svg version="1.1" id="Layer_1" xmlns="http://www.w3.org/2000/svg" xmlns:xlink="http://www.w3.org/1999/xlink" x="0px" y="0px"
	 viewBox="0 0 60 56" style="enable-background:new 0 0 60 56;" xml:space="preserve">
<style type="text/css">
	.st0{fill:#9ACCDE;}
	.st1{fill:#88B8C9;}
	.st2{fill:#B8DBE8;}
</style>
<g>
	<path class="st0" d="M10.6,17.6h38.7c2.8,0,5,2.2,5,5V51c0,2.8-2.2,5-5,5H10.6c-2.8,0-5-2.2-5-5V22.6C5.6,19.9,7.9,17.6,10.6,17.6z
		"/>
	<path class="st1" d="M32.9,41.4c-1.6,1.6-4.2,1.6-5.8,0L10.6,24.3c-2.5-2.5-0.7-6.8,2.9-6.8h33.1c3.5,0,5.3,4.2,2.9,6.8L32.9,41.4z
		"/>
	<path class="st2" d="M11.2,0.1h37.4v25L33.2,42c-0.7,0.7-1.6,1.1-2.6,1.1h-0.9c-1,0-1.9-0.4-2.6-1.1L11.2,25.1V0.1z"/>
	<rect x="15" y="4" class="st0" width="29" height="5"/>
	<rect x="15" y="11" class="st0" width="14" height="5"/>
	<rect x="30" y="11" class="st0" width="14" height="5"/>
	<rect x="15" y="18" class="st0" width="29" height="5"/>
</g>
</svg>
