<?xml version="1.0" encoding="utf-8"?>
<!-- Generator: Adobe Illustrator 27.7.0, SVG Export Plug-In . SVG Version: 6.00 Build 0)  -->
<svg version="1.1" id="Layer_1" xmlns="http://www.w3.org/2000/svg" xmlns:xlink="http://www.w3.org/1999/xlink" x="0px" y="0px"
	 viewBox="0 0 54 56" style="enable-background:new 0 0 54 56;" xml:space="preserve">
<style type="text/css">
	.st0{fill:#9ACCDE;}
	.st1{fill:#B8DBE8;}
	.st2{fill:#88B8C9;}
</style>
<g>
	<path class="st0" d="M50.1,19.5v34.7c0,1-0.8,1.8-1.8,1.8H6.9c-1,0-1.8-0.8-1.8-1.8V19.6 M5.1,21.1V1.8c0-1,0.8-1.8,1.8-1.8h32
		l1.7,9.2c0,1.2-0.7,0.2,0.5,0.2l9,1.7v9.9 M40.6,9.2L38.9,0l11.2,11.2l-8.7-1C40.4,10.2,40.6,10.2,40.6,9.2z"/>
	<rect x="9.6" y="23.5" class="st1" width="40.5" height="19"/>
	<path class="st1" d="M38.9,0v9.4c0,1,0.8,1.8,1.8,1.8h9.5L38.9,0z"/>
	<path class="st2" d="M16.6,28.1C16.3,28,15.7,28,14.8,28h-1.2v3.5H15c1,0,1.6-0.1,2-0.2c0.3-0.1,0.6-0.3,0.8-0.6
		c0.2-0.3,0.3-0.6,0.3-0.9c0-0.4-0.1-0.8-0.4-1.1C17.3,28.3,17,28.1,16.6,28.1L16.6,28.1z"/>
	<path class="st2" d="M29.3,28.7c-0.3-0.3-0.7-0.5-1.1-0.6c-0.3-0.1-1-0.1-2-0.1H25v8.1h1.8c0.7,0,1.2,0,1.5-0.1
		c0.4-0.1,0.7-0.3,1-0.5c0.3-0.2,0.5-0.6,0.6-1.2c0.2-0.5,0.3-1.3,0.3-2.2c0-0.9-0.1-1.7-0.3-2.2C29.8,29.4,29.6,29,29.3,28.7
		L29.3,28.7z"/>
	<path class="st2" d="M0,20.9v21.5h54V20.9H0z M20.1,31.6c-0.3,0.5-0.6,0.9-1,1.2c-0.4,0.3-0.8,0.5-1.3,0.6
		c-0.6,0.1-1.4,0.2-2.6,0.2h-1.6v4.6h-2.5V25.9h4c1.5,0,2.5,0.1,2.9,0.2c0.7,0.2,1.3,0.6,1.8,1.2c0.5,0.6,0.7,1.4,0.7,2.4
		C20.5,30.4,20.4,31.1,20.1,31.6z M32.4,34.7c-0.3,0.9-0.7,1.6-1.3,2.2c-0.4,0.4-1,0.7-1.7,1c-0.5,0.2-1.3,0.3-2.2,0.3h-4.6V25.9
		h4.5c1,0,1.8,0.1,2.3,0.2c0.7,0.2,1.3,0.6,1.8,1.1c0.5,0.5,0.9,1.2,1.2,2c0.3,0.8,0.4,1.7,0.4,2.9C32.8,33.1,32.7,34,32.4,34.7
		L32.4,34.7z M43.3,28h-5.9v2.9h5.1v2.1h-5.1v5.2h-2.5V25.9h8.4V28z"/>
</g>
</svg>
